<?xml version="1.0" standalone="no"?>
<!DOCTYPE svg PUBLIC "-//W3C//DTD SVG 20010904//EN"
        "http://www.w3.org/TR/2001/REC-SVG-20010904/DTD/svg10.dtd">
<svg version="1.0" xmlns="http://www.w3.org/2000/svg"
     width="512.000000pt" height="512.000000pt" viewBox="0 0 512.000000 512.000000"
     preserveAspectRatio="xMidYMid meet">

    <g transform="translate(0.000000,512.000000) scale(0.100000,-0.100000)"
       fill="#000000" stroke="none">
        <path d="M723 4456 c-102 -32 -176 -97 -222 -196 l-26 -55 -3 -1293 -2 -1294
-181 -275 -182 -274 7 -53 c19 -165 129 -298 284 -346 63 -20 99 -20 2162 -20
2051 0 2100 0 2161 19 155 49 266 182 285 344 l6 54 -161 277 -161 276 -2
1293 -3 1292 -33 67 c-38 77 -92 130 -171 167 l-56 26 -1830 2 c-1494 1 -1838
-1 -1872 -11z m3689 -96 c56 -16 119 -69 147 -125 l26 -49 3 -1263 2 -1263
-2010 0 -2010 0 2 1268 3 1267 28 47 c31 53 79 94 134 114 31 11 360 13 1838
14 1210 0 1812 -3 1837 -10z m329 -3025 l128 -220 -796 -3 c-616 -2 -798 1
-804 10 -4 7 -26 65 -49 129 -23 64 -50 125 -62 135 -19 18 -49 19 -578 19
-529 0 -559 -1 -578 -18 -12 -11 -42 -77 -68 -148 l-47 -129 -813 0 c-448 0
-814 2 -814 5 0 2 66 103 146 225 l146 220 2030 -2 2031 -3 128 -220z m-1615
-115 c18 -47 33 -91 33 -97 1 -10 -121 -13 -579 -13 -352 0 -580 4 -580 9 0
10 57 168 66 182 3 5 233 8 517 7 l511 -3 32 -85z m1774 -230 c0 -38 -48 -117
-99 -162 -95 -85 112 -79 -2261 -76 l-2105 3 -50 27 c-82 43 -165 148 -165
208 l0 20 2340 0 2340 0 0 -20z"/>
        <path d="M772 4148 c-9 -9 -12 -279 -12 -1155 0 -1119 0 -1143 19 -1153 27
-14 3575 -14 3602 0 19 10 19 34 19 1153 0 876 -3 1146 -12 1155 -17 17 -3599
17 -3616 0z m3528 -1153 l0 -1065 -1720 0 -1720 0 0 1065 0 1065 1720 0 1720
0 0 -1065z"/>
        <path d="M1007 3862 c-25 -28 -23 -126 3 -152 24 -24 43 -25 64 -4 20 19 22
144 4 162 -18 18 -53 15 -71 -6z"/>
        <path d="M1000 3541 c-6 -13 -10 -157 -10 -400 0 -368 1 -382 20 -401 24 -24
43 -25 64 -4 14 13 16 64 16 408 0 291 -3 395 -12 404 -19 19 -66 15 -78 -7z"/>
        <path d="M1923 3475 c-27 -19 -375 -699 -375 -733 0 -13 6 -28 13 -33 8 -5 96
-9 197 -9 l182 0 0 -109 0 -109 30 -11 c36 -12 74 -1 84 24 3 9 6 59 6 111 l0
94 45 0 c48 0 65 16 65 62 0 35 -18 48 -67 48 l-43 0 0 116 c0 63 -4 124 -10
134 -12 23 -52 33 -84 20 l-26 -10 0 -130 0 -130 -120 0 c-66 0 -120 2 -120 5
0 3 70 145 155 315 129 259 154 314 145 330 -6 11 -15 20 -20 20 -4 0 -14 2
-22 5 -7 3 -23 -2 -35 -10z"/>
        <path d="M2467 3477 c-81 -19 -135 -60 -172 -132 l-30 -59 0 -315 c0 -300 1
-318 21 -361 25 -54 64 -94 119 -124 34 -18 56 -21 155 -21 132 0 169 13 233
84 63 70 69 108 65 443 l-3 293 -28 58 c-31 63 -71 99 -136 122 -61 21 -157
26 -224 12z m201 -124 c14 -11 35 -32 46 -47 20 -26 21 -42 24 -319 3 -287 2
-293 -20 -337 -32 -61 -75 -85 -158 -85 -79 0 -125 23 -157 81 -22 38 -23 48
-23 321 0 176 4 292 11 310 14 37 47 72 84 90 43 20 159 12 193 -14z"/>
        <path d="M3317 3468 c-29 -27 -367 -693 -367 -724 0 -41 15 -44 207 -44 l183
0 0 -104 c0 -115 7 -129 62 -129 48 0 58 23 58 135 l0 98 43 0 c51 0 67 13 67
55 0 42 -16 55 -67 55 l-43 0 0 124 c0 101 -3 126 -16 137 -21 18 -83 17 -95
-1 -5 -8 -9 -70 -9 -137 l0 -123 -120 0 c-66 0 -120 3 -120 7 0 3 70 143 155
311 85 167 155 310 155 317 0 15 -18 30 -47 39 -14 5 -29 0 -46 -16z"/>
    </g>
</svg>
